# xmcd
#
# Track frame offsets: 
#        150
#        21597
#        50542
#        68625
#        91542
#        121727
#        195488
#        220534
#        255134
#
# Disc length: 3803 seconds
#
# Revision: 1
# Processed by: cddbd v1.5.2PL0 Copyright (c) Steve Scherf et al.
# Submitted via: ExactAudioCopy v0.95b3
#
DISCID=680ed909
DTITLE=Eric Clapton And Steve Winwood - Live From Madison Square Garde
DTITLE=n [CD2]
DYEAR=2009
DGENRE=Blues
TTITLE0=After Midnight
TTITLE1=Split Decision
TTITLE2=Rambling On My Mind
TTITLE3=Georgia On My Mind
TTITLE4=Little Wing
TTITLE5=Voodoo Chile
TTITLE6=Can't Find My Way Home
TTITLE7=Dear Mr. Fantasy
TTITLE8=Cocaine
EXTD=
EXTT0=
EXTT1=
EXTT2=
EXTT3=
EXTT4=
EXTT5=
EXTT6=
EXTT7=
EXTT8=
PLAYORDER=
